<?xml version="1.0" encoding="UTF-8" standalone="no"?>
<svg
   xmlns:dc="http://purl.org/dc/elements/1.1/"
   xmlns:cc="http://creativecommons.org/ns#"
   xmlns:rdf="http://www.w3.org/1999/02/22-rdf-syntax-ns#"
   xmlns:svg="http://www.w3.org/2000/svg"
   xmlns="http://www.w3.org/2000/svg"
   xmlns:sodipodi="http://sodipodi.sourceforge.net/DTD/sodipodi-0.dtd"
   xmlns:inkscape="http://www.inkscape.org/namespaces/inkscape"
   version="1.1"
   viewBox="0.0 0.0 960.0 720.0"
   fill="none"
   stroke="none"
   stroke-linecap="square"
   stroke-miterlimit="10"
   id="svg907"
   sodipodi:docname="Naisc Logo.svg"
   inkscape:version="0.92.3 (2405546, 2018-03-11)">
  <metadata
     id="metadata913">
    <rdf:RDF>
      <cc:Work
         rdf:about="">
        <dc:format>image/svg+xml</dc:format>
        <dc:type
           rdf:resource="http://purl.org/dc/dcmitype/StillImage" />
      </cc:Work>
    </rdf:RDF>
  </metadata>
  <defs
     id="defs911" />
  <sodipodi:namedview
     pagecolor="#ffffff"
     bordercolor="#666666"
     borderopacity="1"
     objecttolerance="10"
     gridtolerance="10"
     guidetolerance="10"
     inkscape:pageopacity="0"
     inkscape:pageshadow="2"
     inkscape:window-width="1916"
     inkscape:window-height="1037"
     id="namedview909"
     showgrid="false"
     inkscape:zoom="1.2166667"
     inkscape:cx="480"
     inkscape:cy="360"
     inkscape:window-x="0"
     inkscape:window-y="20"
     inkscape:window-maximized="0"
     inkscape:current-layer="svg907" />
  <clipPath
     id="p.0">
    <path
       d="m0 0l960.0 0l0 720.0l-960.0 0l0 -720.0z"
       clip-rule="nonzero"
       id="path884" />
  </clipPath>
  <path
     style="fill:#000000;fill-opacity:0;fill-rule:evenodd"
     inkscape:connector-curvature="0"
     id="path887"
     d="M 0,0 H 960 V 720 H 0 Z" />
  <path
     style="fill:#000000;fill-opacity:0;fill-rule:evenodd"
     inkscape:connector-curvature="0"
     id="path889"
     d="M 45.99475,72.485565 107.28609,179.85563"
     inkscape:export-filename="/home/jmccrae/projects/johmcc/naisc/logo.png"
     inkscape:export-xdpi="170.96233"
     inkscape:export-ydpi="170.96233" />
  <path
     style="fill-rule:evenodd;stroke:#621d7d;stroke-width:24;stroke-linecap:butt;stroke-linejoin:round"
     inkscape:connector-curvature="0"
     id="path891"
     d="M 45.99475,72.485565 107.28609,179.85563"
     inkscape:export-filename="/home/jmccrae/projects/johmcc/naisc/logo.png"
     inkscape:export-xdpi="170.96233"
     inkscape:export-ydpi="170.96233" />
  <path
     style="fill:#000000;fill-opacity:0;fill-rule:evenodd"
     inkscape:connector-curvature="0"
     id="path893"
     d="M 0,0 H 505.29135 V 275.84253 H 0 Z" />
  <path
     style="fill:#000000;fill-rule:nonzero"
     inkscape:connector-curvature="0"
     id="path895"
     d="M 65.3125,180.6875 V 201 H 23 V 180.6875 H 33 V 83 H 23 V 62.6875 H 65.3125 V 83 h -10 v 97.6875 z m 62.00001,0 V 201 H 85.000015 v -20.3125 h 10 V 83 h -10 V 62.6875 H 127.31251 V 83 h -10 v 97.6875 z"
     inkscape:export-filename="/home/jmccrae/projects/johmcc/naisc/logo.png"
     inkscape:export-xdpi="170.96233"
     inkscape:export-ydpi="170.96233" />
  <path
     style="fill:#621d7d;fill-rule:nonzero"
     inkscape:connector-curvature="0"
     id="path897"
     d="M 223.31253,201 H 210.3594 l -3.0625,-7.67188 q -0.46875,0.89063 -8.20312,5.78125 Q 191.3594,204 181.95315,204 q -32.95312,0 -32.95312,-32.15625 v -20 q 0,-32.15625 32.95312,-32.15625 h 19.04688 V 91.046875 q 0,-5.3125 -3.29688,-8.171875 Q 194.40628,80 186.95315,80 173.31253,80 173.31253,91.046875 V 107 h -22.3125 V 91.84375 q 0,-15.21875 9.15625,-23.6875 9.17187,-8.46875 26.78125,-8.46875 17.60937,0 26.98437,8.453125 9.39063,8.453125 9.39063,23.703125 z m -22.3125,-61 h -19.04688 q -6.32812,0 -8.48437,2.82812 -2.15625,2.82813 -2.15625,9.01563 v 20 q 0,6.1875 2.15625,9.01562 2.15625,2.82813 8.71875,2.82813 6.57812,0 12.54687,-5.39063 5.96875,-5.40625 6.26563,-9.98437 z m 74.31253,61 h -22.3125 V 62.6875 h 22.3125 z M 378.90631,171.84375 Q 378.90631,204 340.95319,204 303.00006,204 303.00006,171.84375 V 150.6875 h 22.3125 v 21.95312 q 0,5.20313 3.64063,8.125 3.65625,2.92188 12,2.92188 8.34375,0 11.98437,-2.92188 3.65625,-2.92187 3.65625,-8.45312 0,-5.53125 -1.21875,-8.84375 -1.21875,-3.32813 -5.14062,-7.26563 l -35.20313,-34.40624 q -6.84375,-6.82813 -9.4375,-13.5 -2.59375,-6.67188 -2.59375,-16.45313 0,-15.28125 9.59375,-23.71875 9.59375,-8.4375 27.96875,-8.4375 36.34375,0 36.34375,32.15625 V 113 h -22.3125 V 91.046875 q 0,-5.28125 -3.39062,-8.15625 Q 347.82819,80 339.95319,80 q -7.85938,0 -11.25,2.890625 -3.39063,2.875 -3.39063,8.5625 0,5.6875 1.10938,8.859375 1.10937,3.17188 5.17187,6.90625 L 367.54694,141.75 q 6.42187,7.09375 8.89062,13.71875 2.46875,6.625 2.46875,16.375 z m 76.69379,0 V 156.6875 h 22.3125 v 15.15625 q 0,15.26562 -9.5,23.71875 Q 458.92822,204 440.95947,204 q -17.95312,0 -27.65625,-8.42188 -9.70312,-8.4375 -9.70312,-23.73437 v -80 q 0,-15.265625 9.48437,-23.703125 9.5,-8.453125 27.45313,-8.453125 17.96875,0 27.67187,8.4375 9.70313,8.421875 9.70313,23.71875 V 115 H 455.6001 V 91.84375 Q 455.6001,80 440.75635,80 425.9126,80 425.9126,91.84375 v 80 q 0,11.84375 14.84375,11.84375 14.84375,0 14.84375,-11.84375 z"
     inkscape:export-filename="/home/jmccrae/projects/johmcc/naisc/logo.png"
     inkscape:export-xdpi="170.96233"
     inkscape:export-ydpi="170.96233" />
  <path
     style="fill:#621d7d;fill-rule:evenodd"
     inkscape:connector-curvature="0"
     id="path899"
     d="m 117.86138,137.91342 -0.23621,61.9055 -53.149616,-31.70077 z"
     inkscape:export-filename="/home/jmccrae/projects/johmcc/naisc/logo.png"
     inkscape:export-xdpi="170.96233"
     inkscape:export-ydpi="170.96233" />
  <path
     style="fill:#000000;fill-opacity:0;fill-rule:evenodd"
     inkscape:connector-curvature="0"
     id="path901"
     d="m 76.65354,119.21785 26.64567,47.49606"
     inkscape:export-filename="/home/jmccrae/projects/johmcc/naisc/logo.png"
     inkscape:export-xdpi="170.96233"
     inkscape:export-ydpi="170.96233" />
  <path
     style="fill-rule:evenodd;stroke:#621d7d;stroke-width:16;stroke-linecap:butt;stroke-linejoin:round"
     inkscape:connector-curvature="0"
     id="path903"
     d="m 76.65354,119.21785 26.64567,47.49606"
     inkscape:export-filename="/home/jmccrae/projects/johmcc/naisc/logo.png"
     inkscape:export-xdpi="170.96233"
     inkscape:export-ydpi="170.96233" />
</svg>
